<?xml version="1.0" encoding="UTF-8"?> <svg xmlns="http://www.w3.org/2000/svg" width="236" height="155" viewBox="0 0 236 155" fill="none"><path d="M231.519 46.2808C227.558 43.7635 221.615 43 215.673 43.0206C215.673 43.0206 211.216 42.9794 207.853 43.4333C205.583 43.6603 203.478 43.9285 201.642 44.1968C198.629 44.6301 195.576 45.2697 192.542 45.9506C191.387 46.1776 190.211 46.4046 188.993 46.6315C177.047 19.2713 149.707 0.0820312 117.993 0.0820312C81.5954 0.0820312 50.9957 25.317 42.7629 59.1974C30.0938 67.4922 16.9296 76.6329 7.76823 87.9401C-11.5655 111.813 10.0586 115.3 30.5271 113.154C36.2427 112.556 41.9788 111.174 47.6737 109.894C59.9507 136.45 86.8569 154.917 117.993 154.917C153.524 154.917 183.546 130.858 192.604 98.1744C202.137 91.9224 211.546 85.4022 219.882 77.6439C226.423 71.557 243.714 54.039 231.519 46.2601V46.2808ZM117.973 16.5477C141.639 16.5477 162.211 30.104 172.322 49.871C153.627 53.7501 130.559 59.7339 106.624 71.6189C81.4303 84.1435 66.6773 87.4862 57.7429 87.1147C57.2477 83.9991 56.9795 80.7802 56.9795 77.5201C56.9795 43.8873 84.3397 16.527 117.973 16.527V16.5477ZM117.973 138.513C94.6565 138.513 74.3736 125.37 64.1187 106.098C87.7236 98.5871 134.17 76.0551 157.734 69.2873C166.977 66.6255 173.456 66.1303 177.975 66.5843C178.615 70.1333 178.966 73.7854 178.966 77.5201C178.966 111.153 151.605 138.513 117.973 138.513Z" fill="#1A1A1A"></path></svg> 