<svg width="157" height="137" viewBox="0 0 157 137" fill="none" xmlns="http://www.w3.org/2000/svg">
<path d="M123.602 61.9015C133.498 61.9015 141.521 49.1693 141.521 33.4634C141.521 17.7575 133.498 5.02539 123.602 5.02539C113.705 5.02539 105.682 17.7575 105.682 33.4634C105.682 49.1693 113.705 61.9015 123.602 61.9015Z" fill="#BA5AD8"/>
<g style="mix-blend-mode:multiply" opacity="0.28">
<path d="M109.61 61.9015C119.507 61.9015 127.53 49.1693 127.53 33.4634C127.53 17.7575 119.507 5.02539 109.61 5.02539C99.7134 5.02539 91.6904 17.7575 91.6904 33.4634C91.6904 49.1693 99.7134 61.9015 109.61 61.9015Z" fill="#FF8D76"/>
</g>
<path d="M153.35 21.4624H3.65023C1.63426 21.4624 0 23.0967 0 25.1126V35.0041C0 37.0201 1.63426 38.6544 3.65023 38.6544H153.35C155.366 38.6544 157 37.0201 157 35.0041V25.1126C157 23.0967 155.366 21.4624 153.35 21.4624Z" fill="#6E407D"/>
<g style="mix-blend-mode:multiply" opacity="0.48">
<path d="M91.6914 38.7608H115.804C115.804 38.7608 113.173 35.6064 113.173 30.1585C113.173 24.7106 115.804 21.4634 115.804 21.4634H91.6914V38.7608Z" fill="#99ADF9"/>
</g>
<g style="mix-blend-mode:multiply" opacity="0.48">
<path d="M2.97977 21.4624H22.3914V38.7641H2.97977C2.58936 38.7641 2.20277 38.6872 1.84208 38.5378C1.48138 38.3884 1.15365 38.1694 0.877587 37.8933C0.601525 37.6173 0.382542 37.2895 0.233138 36.9288C0.0837338 36.5681 0.00683594 36.1816 0.00683594 35.7911V24.4353C0.00683594 24.0449 0.0837338 23.6583 0.233138 23.2976C0.382542 22.937 0.601525 22.6092 0.877587 22.3332C1.15365 22.0571 1.48138 21.8381 1.84208 21.6887C2.20277 21.5393 2.58936 21.4624 2.97977 21.4624Z" fill="#99ADF9"/>
</g>
<path d="M105.682 33.4643C105.682 17.7598 113.7 5.02832 123.602 5.02832H33.3966C23.4988 5.02832 15.4746 17.7598 15.4746 33.4643C15.4746 49.1687 23.4925 61.9023 33.3966 61.9023H123.602C113.704 61.9023 105.682 49.1708 105.682 33.4643Z" fill="#D293E6"/>
<g style="mix-blend-mode:multiply" opacity="0.26">
<path d="M144.184 54.0615H12.8115V73.5238H144.184V54.0615Z" fill="#CB9ADA"/>
</g>
<g style="mix-blend-mode:soft-light" opacity="0.26">
<path d="M137.61 0H6.2373V19.4623H137.61V0Z" fill="white"/>
</g>
<path d="M47.774 30.1575C47.774 32.1584 46.152 33.7804 44.1512 33.7804C42.1503 33.7804 40.5283 32.1584 40.5283 30.1575C40.5283 28.1567 42.1503 26.5347 44.1512 26.5347C46.152 26.5347 47.774 28.1567 47.774 30.1575Z" fill="#2F092A" stroke="#2F092A"/>
<path d="M79.6696 30.1575C79.6696 32.1584 78.0475 33.7804 76.0467 33.7804C74.0458 33.7804 72.4238 32.1584 72.4238 30.1575C72.4238 28.1567 74.0458 26.5347 76.0467 26.5347C78.0475 26.5347 79.6696 28.1567 79.6696 30.1575Z" fill="#2F092A" stroke="#2F092A"/>
<path d="M55.1836 38.7618C55.1836 38.7618 56.2133 35.7192 60.161 35.7192C64.1087 35.7192 65.0139 38.7618 65.0139 38.7618" fill="#2F092A"/>
<path d="M55.1836 38.7618C55.1836 38.7618 56.2133 35.7192 60.161 35.7192C64.1087 35.7192 65.0139 38.7618 65.0139 38.7618" stroke="#2F092A" stroke-width="9" stroke-miterlimit="10" stroke-linecap="round"/>
<path d="M123.602 61.9019H33.3966C33.3966 61.9019 33.8714 120.398 15.4746 136.616H63.0901L66.8205 132.725L68.1181 136.616H75.6612L78.4991 134.181L80.1702 136.613H97.1533L105.682 127.045V136.613H110.613C110.613 136.613 128.372 112.855 123.602 61.9019Z" fill="#F8EEFB"/>
<g style="mix-blend-mode:multiply" opacity="0.75">
<path d="M133.967 60.3477H27.541V74.6426H133.967V60.3477Z" fill="#CB9ADA"/>
</g>
</svg>
