<svg width="193" height="193" viewBox="0 0 193 193" fill="none" xmlns="http://www.w3.org/2000/svg">
<path d="M97.291 147.39L103.328 145.275C102.521 141.187 101.197 134.467 100.159 129.175L99.7537 127.106C99.1554 124.045 98.7077 121.752 98.5957 121.223V121.204C98.6297 120.286 98.7459 119.372 98.9431 118.475C100.487 109.647 106.416 82.9243 106.416 82.9243L88.0077 84.2599C88.0077 84.2599 83.7888 115.526 84.8194 122.231C85.5914 127.245 93.4117 140.89 97.291 147.39Z" fill="#CB9ADA"/>
<path d="M98.6611 97.6849C98.642 97.6886 98.6223 97.6886 98.6032 97.6849C98.5414 97.6617 92.4002 95.1874 90.4625 95.6352C90.3956 95.6487 90.3307 95.6707 90.2695 95.7008C90.586 96.0636 93.5234 96.8395 96.2756 97.3992C96.3115 97.4103 96.3419 97.4344 96.3609 97.4667C96.3799 97.4991 96.3862 97.5373 96.3784 97.574C96.3707 97.6107 96.3496 97.6433 96.3191 97.6652C96.2887 97.6871 96.2511 97.6969 96.2139 97.6926C96.2139 97.6926 94.6699 97.3761 93.1259 96.9901C89.9452 96.1833 89.9414 95.8629 89.9375 95.6892C89.9375 95.446 90.2617 95.3689 90.3853 95.3418C92.4156 94.8748 98.4527 97.3027 98.7074 97.4069C98.7339 97.4223 98.7551 97.4453 98.7681 97.473C98.7812 97.5007 98.7854 97.5317 98.7804 97.5619C98.7754 97.5921 98.7613 97.62 98.74 97.642C98.7186 97.664 98.6911 97.6789 98.6611 97.6849Z" fill="#6E407D"/>
<path d="M99.3289 142.291C99.2971 142.291 99.2662 142.281 99.2406 142.262C99.2149 142.244 99.1959 142.217 99.1861 142.187C98.939 141.388 93.1066 122.636 93.315 120.772C93.5235 118.907 97.7695 100.642 97.947 99.866C97.9562 99.8271 97.9805 99.7935 98.0146 99.7725C98.0486 99.7515 98.0895 99.7448 98.1284 99.7541C98.1673 99.7633 98.201 99.7876 98.222 99.8216C98.243 99.8556 98.2496 99.8966 98.2404 99.9355C98.1979 100.125 93.8168 118.985 93.6084 120.806C93.3999 122.628 99.3984 141.901 99.4679 142.098C99.4738 142.117 99.4759 142.137 99.4741 142.157C99.4723 142.177 99.4665 142.196 99.4572 142.214C99.4478 142.231 99.4351 142.247 99.4197 142.26C99.4043 142.272 99.3866 142.282 99.3675 142.287L99.3289 142.291Z" fill="#6E407D"/>
<path d="M100.159 129.175C97.5573 126.473 93.3421 121.169 93.3074 120.66C93.2032 119.089 94.8784 113.816 94.8784 113.816C94.8784 113.816 96.9512 116.171 98.9546 118.471C98.7574 119.369 98.6412 120.282 98.6072 121.2V121.223C98.7037 121.756 99.1476 124.049 99.7652 127.106L100.159 129.175Z" fill="#6E407D"/>
<path d="M87.7531 93.5161C87.7183 93.5161 87.6845 93.504 87.6576 93.482C87.6307 93.4599 87.6123 93.4292 87.6055 93.3951C87.5986 93.3609 87.6038 93.3255 87.6202 93.2948C87.6366 93.2641 87.6631 93.24 87.6952 93.2266C88.3262 92.9148 88.881 92.4681 89.3202 91.918C90.0382 91.0495 90.8642 89.4901 90.6403 86.9965C90.6373 86.9566 90.6502 86.9171 90.6762 86.8867C90.7023 86.8563 90.7394 86.8375 90.7793 86.8344C90.8192 86.8314 90.8587 86.8443 90.8891 86.8703C90.9195 86.8964 90.9384 86.9335 90.9414 86.9734C91.3583 91.9644 87.8534 93.4891 87.8148 93.5045C87.7953 93.5127 87.7742 93.5166 87.7531 93.5161Z" fill="#6E407D"/>
<path d="M102.749 156.492L105.212 154.878L104.135 150.567L103.572 148.316L99.5225 149.675L100.028 150.737L102.749 156.492Z" fill="#ECBDBB"/>
<path d="M104.135 150.567L103.572 148.316L99.5225 149.675L100.024 150.737C101.391 150.966 102.792 150.908 104.135 150.567Z" fill="#6E407D"/>
<path d="M109.763 158.202L105.455 153.628C104.22 154.998 101.325 155.905 101.325 155.905C101.325 155.905 99.0093 166.3 98.658 168.192C98.3068 170.083 101.36 174.951 101.36 174.951L109.763 158.202Z" fill="#6E407D"/>
<path d="M101.375 157.218C101.411 157.218 101.445 157.206 101.472 157.183C102.078 156.779 102.815 156.62 103.533 156.739C103.57 156.739 103.606 156.726 103.634 156.701C103.662 156.677 103.679 156.643 103.684 156.606C103.688 156.569 103.678 156.532 103.657 156.502C103.636 156.472 103.604 156.45 103.568 156.442C102.768 156.309 101.947 156.491 101.279 156.951C101.255 156.971 101.238 156.998 101.23 157.028C101.222 157.058 101.223 157.089 101.234 157.118C101.244 157.148 101.263 157.173 101.289 157.191C101.314 157.208 101.344 157.218 101.375 157.218Z" fill="#AA78BA"/>
<path d="M100.541 161.139C100.577 161.139 100.611 161.127 100.638 161.105C101.271 160.685 102.039 160.52 102.788 160.641C102.825 160.642 102.861 160.628 102.889 160.604C102.916 160.579 102.934 160.545 102.938 160.508C102.943 160.472 102.933 160.434 102.912 160.404C102.891 160.374 102.859 160.353 102.823 160.344C101.992 160.206 101.139 160.396 100.445 160.873C100.421 160.893 100.404 160.92 100.396 160.949C100.388 160.979 100.389 161.011 100.4 161.04C100.41 161.069 100.429 161.094 100.455 161.112C100.48 161.13 100.51 161.139 100.541 161.139Z" fill="#AA78BA"/>
<path d="M99.7076 165.061C99.7428 165.061 99.777 165.049 99.8041 165.026C100.464 164.587 101.265 164.414 102.047 164.54C102.067 164.545 102.089 164.545 102.11 164.541C102.13 164.537 102.15 164.529 102.167 164.516C102.185 164.504 102.199 164.489 102.21 164.47C102.221 164.452 102.228 164.432 102.23 164.411C102.233 164.39 102.231 164.368 102.224 164.348C102.218 164.328 102.207 164.309 102.193 164.294C102.179 164.278 102.162 164.265 102.143 164.256C102.124 164.248 102.103 164.243 102.081 164.243C101.219 164.101 100.335 164.299 99.615 164.795C99.5914 164.814 99.5743 164.841 99.5661 164.87C99.5578 164.9 99.5588 164.931 99.5689 164.96C99.579 164.989 99.5977 165.014 99.6224 165.032C99.6472 165.05 99.6769 165.06 99.7076 165.061Z" fill="#AA78BA"/>
<path d="M102.495 165.733H102.518C102.557 165.735 102.596 165.722 102.625 165.696C102.655 165.67 102.673 165.633 102.676 165.594L104.324 155.577C104.331 155.538 104.322 155.497 104.298 155.465C104.275 155.432 104.24 155.41 104.201 155.403C104.161 155.397 104.121 155.406 104.088 155.429C104.056 155.452 104.034 155.488 104.027 155.527L102.379 165.544C102.373 165.564 102.372 165.585 102.374 165.605C102.377 165.626 102.384 165.646 102.395 165.664C102.406 165.681 102.421 165.697 102.438 165.709C102.455 165.721 102.474 165.729 102.495 165.733Z" fill="#AA78BA"/>
<path d="M101.379 174.943L105.355 166.999C101.155 164.726 98.4876 167.057 98.4876 167.057C98.4876 167.057 97.6577 169.605 98.0013 171.156C98.3448 172.708 101.379 174.943 101.379 174.943Z" fill="#F8EEFB"/>
<path d="M111.465 159.252L109.948 157.832L101.193 175.313L103.069 176.352L111.465 159.252Z" fill="#F8EEFB"/>
<path d="M107.766 159.794C108.36 159.213 108.278 158.165 107.582 157.453C106.886 156.741 105.84 156.635 105.245 157.216C104.651 157.797 104.733 158.846 105.429 159.558C106.125 160.269 107.171 160.375 107.766 159.794Z" fill="#44284E"/>
<path d="M104.992 148.502L103.333 142.079C101.68 142.894 95.2266 145.04 95.2266 145.04L98.5114 150.976C100.791 150.506 102.979 149.67 104.992 148.502Z" fill="#F8EEFB"/>
<path d="M122.172 142.056L120.424 144.422L117.251 141.311L115.039 139.137L118.366 136.462L119.131 137.59L122.172 142.056Z" fill="#ECBDBB"/>
<path d="M119.131 137.59C118.861 138.98 118.21 140.268 117.252 141.311L115.028 139.137L118.356 136.462L119.131 137.59Z" fill="#6E407D"/>
<path d="M125.38 162.363L127.766 143.793L122.188 140.89C121.474 142.592 119.042 144.407 119.042 144.407C119.042 144.407 120.308 154.975 120.586 156.886C120.864 158.797 125.38 162.363 125.38 162.363Z" fill="#6E407D"/>
<path d="M119.475 145.646C119.448 145.645 119.423 145.638 119.4 145.624C119.377 145.611 119.358 145.592 119.345 145.569C119.332 145.545 119.326 145.519 119.326 145.493C119.327 145.466 119.334 145.441 119.347 145.418C119.826 144.763 120.54 144.318 121.339 144.179C121.377 144.172 121.416 144.181 121.448 144.202C121.48 144.224 121.502 144.257 121.511 144.294C121.519 144.332 121.513 144.371 121.493 144.404C121.474 144.437 121.442 144.462 121.405 144.472C120.688 144.6 120.046 144.992 119.606 145.572C119.593 145.595 119.573 145.614 119.55 145.626C119.527 145.639 119.501 145.646 119.475 145.646Z" fill="#AA78BA"/>
<path d="M119.904 149.598C119.921 149.608 119.939 149.615 119.959 149.619C119.979 149.622 119.999 149.621 120.018 149.616C120.038 149.612 120.056 149.603 120.072 149.591C120.088 149.58 120.102 149.565 120.112 149.548C120.569 148.939 121.239 148.526 121.988 148.39C122.025 148.379 122.057 148.355 122.076 148.322C122.096 148.289 122.102 148.249 122.094 148.212C122.086 148.174 122.063 148.141 122.031 148.12C121.999 148.098 121.96 148.09 121.922 148.096C121.093 148.241 120.351 148.702 119.853 149.382C119.842 149.399 119.834 149.418 119.83 149.439C119.826 149.459 119.826 149.48 119.831 149.501C119.836 149.521 119.845 149.54 119.857 149.557C119.87 149.574 119.886 149.588 119.904 149.598Z" fill="#AA78BA"/>
<path d="M120.413 153.574C120.43 153.584 120.449 153.591 120.468 153.595C120.488 153.598 120.508 153.597 120.528 153.592C120.547 153.588 120.565 153.579 120.581 153.567C120.598 153.556 120.611 153.541 120.621 153.524C121.097 152.892 121.795 152.464 122.575 152.327C122.612 152.317 122.643 152.292 122.663 152.259C122.683 152.226 122.689 152.187 122.68 152.149C122.672 152.112 122.65 152.079 122.618 152.057C122.586 152.036 122.547 152.027 122.509 152.034C121.648 152.185 120.879 152.663 120.363 153.369C120.343 153.403 120.337 153.444 120.346 153.482C120.356 153.52 120.38 153.553 120.413 153.574Z" fill="#AA78BA"/>
<path d="M123.218 153.18C123.225 153.214 123.243 153.246 123.27 153.268C123.296 153.291 123.33 153.303 123.365 153.304H123.392C123.412 153.3 123.43 153.293 123.447 153.283C123.464 153.272 123.478 153.258 123.49 153.242C123.501 153.226 123.51 153.208 123.514 153.189C123.518 153.169 123.519 153.149 123.516 153.13L121.763 143.132C121.76 143.113 121.753 143.094 121.742 143.077C121.732 143.061 121.718 143.046 121.702 143.035C121.686 143.023 121.668 143.015 121.648 143.011C121.629 143.006 121.609 143.006 121.589 143.009C121.57 143.012 121.551 143.019 121.535 143.03C121.518 143.04 121.503 143.054 121.492 143.07C121.48 143.086 121.472 143.105 121.468 143.124C121.463 143.143 121.463 143.163 121.466 143.183L123.218 153.18Z" fill="#AA78BA"/>
<path d="M125.38 162.363L126.511 153.555C121.798 152.783 120.05 155.871 120.05 155.871C120.05 155.871 120.108 158.546 120.945 159.9C121.783 161.255 125.38 162.363 125.38 162.363Z" fill="#F8EEFB"/>
<path d="M129.719 144.221L127.816 143.38L125.33 162.773L127.445 163.135L129.719 144.221Z" fill="#F8EEFB"/>
<path d="M126.403 145.948C126.772 145.203 126.348 144.241 125.456 143.799C124.564 143.357 123.541 143.602 123.172 144.347C122.803 145.092 123.227 146.055 124.119 146.497C125.011 146.939 126.034 146.693 126.403 145.948Z" fill="#44284E"/>
<path d="M99.1557 97.6851C99.1365 97.6889 99.1169 97.6889 99.0978 97.6851C99.0013 97.6427 96.7432 96.67 96.7432 95.2842C96.7432 93.995 96.9477 86.6417 96.9477 86.5684C96.9477 86.5284 96.9636 86.4901 96.9918 86.4619C97.0201 86.4337 97.0584 86.4178 97.0983 86.4178C97.1382 86.4178 97.1765 86.4337 97.2047 86.4619C97.233 86.4901 97.2488 86.5284 97.2488 86.5684C97.2488 86.6417 97.0442 93.9911 97.0442 95.2765C97.0442 96.2569 98.511 97.0598 99.0321 97.3184C99.1595 96.2955 99.7347 91.5632 100.036 86.1476C100.036 86.1077 100.052 86.0694 100.08 86.0412C100.108 86.0129 100.146 85.9971 100.186 85.9971C100.226 85.9971 100.264 86.0129 100.293 86.0412C100.321 86.0694 100.337 86.1077 100.337 86.1476C99.9971 92.258 99.3139 97.496 99.3062 97.5462C99.3033 97.5841 99.2861 97.6194 99.2582 97.6452C99.2303 97.671 99.1937 97.6853 99.1557 97.6851Z" fill="#6E407D"/>
<path d="M98.7462 97.3258C98.7462 97.3258 93.3422 113.241 93.6008 116.329C93.8594 119.417 111.642 136.428 111.642 136.428L116.309 132.93L107.045 114.341C107.045 114.341 118.984 96.4998 119.66 92.7981C120.335 89.0963 116.186 79.4888 116.186 79.4888L100.051 82.3722L98.7462 97.3258Z" fill="#CB9ADA"/>
<path d="M98.7468 97.4767C98.7197 97.4768 98.6932 97.4696 98.6698 97.4559C98.6465 97.4422 98.6274 97.4225 98.6143 97.3988C98.6013 97.3751 98.5949 97.3483 98.5958 97.3213C98.5967 97.2942 98.6048 97.2679 98.6194 97.2451C98.7931 96.9672 102.865 90.3975 105.401 89.4634C105.733 89.3437 106.088 89.2472 106.224 89.4634C106.312 89.6101 106.474 89.888 104.479 91.8489C103.529 92.7791 102.549 93.6592 102.522 93.6708C102.492 93.6974 102.452 93.7109 102.412 93.7084C102.372 93.7059 102.334 93.6875 102.308 93.6573C102.281 93.6271 102.267 93.5875 102.27 93.5474C102.273 93.5072 102.291 93.4697 102.321 93.443C104.074 91.8991 105.934 90.0308 105.961 89.6294C105.804 89.634 105.648 89.6708 105.506 89.7375C103.618 90.4284 100.719 94.574 99.4763 96.4577C101.132 95.0256 104.973 91.8682 108.177 90.7102C108.213 90.6993 108.253 90.7027 108.287 90.7198C108.321 90.7369 108.348 90.7664 108.361 90.8023C108.374 90.8381 108.373 90.8776 108.358 90.9129C108.344 90.9481 108.316 90.9764 108.281 90.9919C104.139 92.5089 98.9012 97.3957 98.8471 97.442C98.819 97.4654 98.7833 97.4777 98.7468 97.4767Z" fill="#6E407D"/>
<path d="M98.43 123.103C98.4089 123.103 98.388 123.099 98.3687 123.09C98.3494 123.081 98.3322 123.069 98.3181 123.053C95.122 119.498 93.5279 117.301 93.4429 116.34C93.1727 113.279 98.295 98.1597 98.5883 97.2951L99.8891 82.3569C99.8927 82.3169 99.912 82.2801 99.9428 82.2544C99.9735 82.2287 100.013 82.2163 100.053 82.2198C100.093 82.2234 100.13 82.2427 100.156 82.2735C100.181 82.3043 100.194 82.344 100.19 82.3839L98.8855 97.3375C98.8869 97.3491 98.8869 97.3607 98.8855 97.3723C98.8315 97.5305 93.4815 113.291 93.7479 116.313C93.8019 116.919 94.6781 118.544 98.5459 122.848C98.5668 122.87 98.5807 122.898 98.5858 122.927C98.5909 122.957 98.5869 122.988 98.5744 123.015C98.562 123.042 98.5415 123.066 98.5158 123.081C98.49 123.097 98.4602 123.105 98.43 123.103Z" fill="#6E407D"/>
<path d="M113.357 131.745C113.329 131.745 113.303 131.737 113.28 131.723C113.257 131.709 113.238 131.689 113.225 131.664L103.691 113.932C103.678 113.909 103.671 113.883 103.671 113.856C103.671 113.83 103.678 113.804 103.691 113.781C107.084 108.138 115.927 93.3501 116.089 92.6939C116.236 92.111 115.348 86.2592 114.715 82.4649C114.709 82.4255 114.718 82.385 114.741 82.3524C114.764 82.3199 114.799 82.2978 114.839 82.2912C114.878 82.2845 114.919 82.2938 114.951 82.317C114.984 82.3401 115.006 82.3753 115.012 82.4147C115.175 83.3874 116.591 91.9373 116.383 92.7672C116.174 93.5971 104.922 112.326 103.996 113.87L113.484 131.522C113.497 131.544 113.503 131.57 113.503 131.596C113.503 131.621 113.496 131.647 113.483 131.669C113.47 131.692 113.452 131.711 113.43 131.724C113.408 131.737 113.382 131.745 113.357 131.745Z" fill="#6E407D"/>
<path d="M106.223 114.352H106.185C103.162 113.546 99.283 114.009 99.2367 114.013C99.1993 114.014 99.1627 114.001 99.1342 113.977C99.1056 113.953 99.0871 113.919 99.0823 113.882C99.0775 113.844 99.0867 113.807 99.1081 113.776C99.1295 113.745 99.1616 113.724 99.1981 113.715C99.2367 113.715 103.174 113.241 106.254 114.063C106.285 114.075 106.312 114.096 106.329 114.125C106.346 114.153 106.354 114.186 106.35 114.22C106.347 114.253 106.332 114.284 106.309 114.308C106.286 114.332 106.256 114.347 106.223 114.352Z" fill="#6E407D"/>
<path d="M116.144 91.1848C115.87 91.1539 113.473 90.8567 113.056 89.9843C112.639 89.1119 111.577 83.8083 111.535 83.5651C111.531 83.5456 111.531 83.5255 111.535 83.506C111.539 83.4866 111.547 83.468 111.558 83.4516C111.569 83.4351 111.583 83.4209 111.6 83.41C111.617 83.399 111.635 83.3914 111.655 83.3876C111.674 83.3838 111.694 83.3838 111.714 83.3878C111.733 83.3917 111.752 83.3995 111.768 83.4106C111.785 83.4217 111.799 83.436 111.81 83.4526C111.821 83.4691 111.828 83.4877 111.832 83.5072C111.832 83.5613 112.932 89.054 113.33 89.8492C113.639 90.4629 115.507 90.8065 116.202 90.8837C116.242 90.8914 116.277 90.9146 116.3 90.9482C116.323 90.9819 116.331 91.0232 116.323 91.0632C116.316 91.1031 116.292 91.1383 116.259 91.1611C116.225 91.1839 116.184 91.1924 116.144 91.1848Z" fill="#6E407D"/>
<path d="M109.551 136.189C109.551 136.189 114.696 132.039 115.966 130.7L119.745 136.154C118.261 137.946 116.498 139.487 114.522 140.716L109.551 136.189Z" fill="#F8EEFB"/>
<path d="M82.5035 68.1022C81.3318 68.8656 80.1048 69.5404 78.8327 70.121C76.7212 71.0744 74.1698 71.8464 72.5216 71.0358C69.2792 69.4416 63.7246 51.0719 63.7246 51.0719L66.6582 49.9409L76.6402 62.8565L77.8715 61.768L78.8558 60.8995L82.5035 68.1022Z" fill="#ECBDBB"/>
<path d="M82.5033 68.1022C81.3316 68.8655 80.1046 69.5403 78.8324 70.121C77.7763 67.4713 77.4433 64.5886 77.8674 61.7679L78.8517 60.8994L82.5033 68.1022Z" fill="#6E407D"/>
<path d="M73.5521 68.8198H73.5174C73.4981 68.8152 73.4799 68.8069 73.4639 68.7954C73.4478 68.7838 73.4342 68.7692 73.4238 68.7523C73.4134 68.7354 73.4064 68.7167 73.4033 68.6972C73.4001 68.6776 73.4009 68.6576 73.4055 68.6384C73.9588 66.6436 74.9152 64.7833 76.2155 63.1726C76.2419 63.1432 76.2787 63.1254 76.3181 63.1229C76.3574 63.1204 76.3962 63.1334 76.4261 63.1592C76.4559 63.185 76.4744 63.2215 76.4777 63.2608C76.4809 63.3001 76.4685 63.3392 76.4433 63.3695C75.174 64.9431 74.24 66.7598 73.6988 68.7078C73.6903 68.7401 73.6712 68.7687 73.6446 68.7889C73.6181 68.8092 73.5855 68.82 73.5521 68.8198Z" fill="#404B7C"/>
<path d="M63.725 51.0717C63.725 51.0717 61.5132 48.995 61.2044 48.2075C60.8956 47.4201 60.0889 44.4518 60.0889 44.4518L66.0912 40.9546L68.0791 45.5171L66.6547 49.9407L63.725 51.0717Z" fill="#ECBDBB"/>
<path d="M60.482 42.8228C59.6753 43.2358 59.8992 44.0734 60.096 44.4517C60.2929 44.83 61.5551 47.4857 62.4815 47.0418C63.4079 46.5979 62.7054 44.8647 62.0531 43.7994C61.4007 42.734 60.7908 42.6645 60.482 42.8228Z" fill="#ECBDBB"/>
<path d="M61.8565 41.588C61.0343 41.974 61.4281 43.2015 61.6172 43.5759C61.8063 43.9503 63.0763 46.6099 64.0027 46.166C64.9291 45.7221 64.2266 43.9889 63.5742 42.9236C62.9219 41.8582 62.3004 41.3834 61.8565 41.588Z" fill="#ECBDBB"/>
<path d="M63.3999 40.7811C62.5931 41.1941 62.8672 42.1862 63.1412 42.7111C63.3381 43.0971 64.6003 45.7451 65.5267 45.3012C66.4531 44.8573 65.6541 43.1743 65.0983 42.0588C64.4614 40.7502 63.6894 40.6267 63.3999 40.7811Z" fill="#ECBDBB"/>
<path d="M65.0641 40.1978C64.2573 40.6108 64.4812 41.4484 64.6781 41.8267C64.8749 42.205 66.1372 44.8607 67.0636 44.4168C67.99 43.9729 67.2874 42.2397 66.6351 41.1744C65.9828 40.109 65.3729 40.0395 65.0641 40.1978Z" fill="#ECBDBB"/>
<path d="M62.2537 47.2425C61.7828 47.2425 61.2347 46.7407 60.621 45.741C60.6084 45.7243 60.5995 45.7052 60.5948 45.6848C60.59 45.6645 60.5896 45.6434 60.5934 45.6228C60.5973 45.6023 60.6053 45.5828 60.6171 45.5656C60.6289 45.5484 60.6442 45.5338 60.6619 45.5227C60.6797 45.5117 60.6995 45.5045 60.7202 45.5016C60.7409 45.4986 60.7619 45.5 60.782 45.5057C60.8021 45.5113 60.8209 45.5211 60.837 45.5343C60.8531 45.5476 60.8663 45.5641 60.8757 45.5827C61.5088 46.6056 62.0337 47.0765 62.4197 46.9067C62.8057 46.7369 62.8713 46.3007 62.6976 45.6136C62.5252 45.0017 62.2652 44.4179 61.9256 43.8805C61.815 43.6869 61.6857 43.5046 61.5396 43.3362C61.5247 43.3221 61.5127 43.305 61.5046 43.2861C61.4965 43.2672 61.4923 43.2468 61.4924 43.2262C61.4925 43.2056 61.4968 43.1852 61.505 43.1663C61.5133 43.1475 61.5254 43.1305 61.5404 43.1165C61.5555 43.1024 61.5733 43.0917 61.5927 43.0848C61.6122 43.0779 61.6328 43.0751 61.6533 43.0765C61.6739 43.078 61.6939 43.0836 61.7122 43.0931C61.7305 43.1025 61.7467 43.1157 61.7597 43.1316C61.9271 43.3145 62.0758 43.5136 62.2036 43.7261C62.5588 44.29 62.8305 44.9024 63.0103 45.5441C63.2728 46.594 62.9177 47.0148 62.5703 47.1808C62.4716 47.2277 62.3628 47.2489 62.2537 47.2425Z" fill="#404B7C"/>
<path d="M63.779 46.3703C63.4587 46.3703 63.1035 46.1387 62.7175 45.6755C62.7026 45.6576 62.692 45.6365 62.6867 45.6138C62.5142 45.0019 62.2542 44.4181 61.9147 43.8806C61.804 43.6871 61.6747 43.5048 61.5287 43.3364C61.5137 43.3222 61.5018 43.3052 61.4936 43.2862C61.4855 43.2673 61.4814 43.2469 61.4814 43.2263C61.4815 43.2057 61.4858 43.1854 61.4941 43.1665C61.5023 43.1476 61.5144 43.1307 61.5295 43.1166C61.5446 43.1026 61.5624 43.0918 61.5818 43.0849C61.6012 43.0781 61.6218 43.0753 61.6424 43.0767C61.6629 43.0781 61.683 43.0837 61.7012 43.0932C61.7195 43.1027 61.7357 43.1158 61.7487 43.1318C61.9161 43.3147 62.0648 43.5138 62.1926 43.7262C62.54 44.2804 62.8077 44.8808 62.9877 45.5096C63.2657 45.8377 63.6517 46.1812 63.9527 46.0345C64.2538 45.8878 64.4044 45.4246 64.2307 44.7375C64.0577 44.127 63.7977 43.5446 63.4587 43.0083C63.3303 42.797 63.1899 42.5934 63.0379 42.3984C63.0234 42.3832 63.0121 42.3652 63.005 42.3454C62.9978 42.3257 62.9949 42.3046 62.9963 42.2837C62.9978 42.2627 63.0036 42.2423 63.0134 42.2237C63.0233 42.2051 63.0369 42.1888 63.0534 42.1758C63.0699 42.1628 63.089 42.1534 63.1093 42.1482C63.1297 42.143 63.1509 42.1422 63.1717 42.1457C63.1924 42.1492 63.2121 42.157 63.2297 42.1686C63.2472 42.1802 63.2621 42.1954 63.2734 42.2131C63.4242 42.4161 63.5634 42.6274 63.6903 42.8461C64.0436 43.4092 64.314 44.0202 64.4931 44.6603C64.7595 45.7141 64.4005 46.1349 64.057 46.3047C63.9703 46.3468 63.8754 46.3693 63.779 46.3703Z" fill="#404B7C"/>
<path d="M65.3075 45.494C64.9871 45.494 64.6282 45.2586 64.2422 44.7915C64.2277 44.7747 64.2172 44.755 64.2113 44.7336C64.0383 44.1231 63.7783 43.5407 63.4393 43.0043C63.311 42.7931 63.1705 42.5894 63.0185 42.3945C63.004 42.3793 62.9928 42.3613 62.9856 42.3415C62.9784 42.3217 62.9755 42.3007 62.9769 42.2797C62.9784 42.2588 62.9842 42.2383 62.994 42.2198C63.0039 42.2012 63.0175 42.1849 63.034 42.1719C63.0505 42.1589 63.0696 42.1495 63.09 42.1443C63.1103 42.1391 63.1316 42.1382 63.1523 42.1418C63.173 42.1453 63.1928 42.1531 63.2103 42.1647C63.2278 42.1763 63.2427 42.1915 63.254 42.2092C63.4115 42.4129 63.5572 42.6256 63.6902 42.8461C64.0371 43.3992 64.3047 43.9981 64.4853 44.6255C64.7633 44.9536 65.1493 45.301 65.4503 45.1544C65.5854 45.0887 65.9907 44.8957 65.6665 43.7918C65.4768 43.2171 65.2392 42.6593 64.9563 42.1243C64.8703 41.9516 64.7723 41.7852 64.6629 41.6263C64.6495 41.6102 64.6396 41.5915 64.6338 41.5714C64.628 41.5513 64.6265 41.5301 64.6294 41.5094C64.6323 41.4887 64.6394 41.4687 64.6504 41.4509C64.6614 41.4331 64.676 41.4177 64.6933 41.4059C64.7105 41.394 64.7301 41.3859 64.7506 41.382C64.7712 41.3781 64.7924 41.3786 64.8128 41.3833C64.8332 41.3881 64.8523 41.3971 64.8691 41.4097C64.8858 41.4223 64.8997 41.4382 64.9099 41.4565C65.0267 41.6277 65.1312 41.807 65.2226 41.993C65.5156 42.5463 65.761 43.1235 65.956 43.7184C66.2185 44.6101 66.0911 45.1852 65.57 45.4284C65.4881 45.4686 65.3987 45.491 65.3075 45.494Z" fill="#404B7C"/>
<path d="M66.8321 44.6216C66.4963 44.6216 66.1141 44.363 65.7011 43.8496C65.6862 43.8317 65.6756 43.8106 65.6702 43.7879C65.4805 43.2132 65.2429 42.6554 64.96 42.1204C64.8753 41.9478 64.7786 41.7814 64.6705 41.6224C64.6522 41.5897 64.6468 41.5513 64.6553 41.5147C64.6638 41.4782 64.6857 41.4462 64.7166 41.4249C64.7475 41.4037 64.7853 41.3947 64.8224 41.3998C64.8596 41.405 64.8935 41.4238 64.9175 41.4526C65.0343 41.6239 65.1387 41.8031 65.2302 41.9891C65.5183 42.5331 65.761 43.0998 65.9559 43.6837C66.2531 44.0504 66.6661 44.4557 66.9865 44.2858C67.3069 44.116 67.4381 43.6759 67.2644 42.9889C67.2547 42.95 67.2608 42.9088 67.2815 42.8744C67.3021 42.84 67.3355 42.8152 67.3744 42.8055C67.4133 42.7958 67.4545 42.8019 67.4889 42.8225C67.5233 42.8432 67.5481 42.8766 67.5578 42.9155C67.8241 43.9693 67.4651 44.39 67.1177 44.556C67.0288 44.5995 66.9311 44.622 66.8321 44.6216Z" fill="#404B7C"/>
<path d="M64.4621 43.5485C64.4215 43.4933 64.3947 43.4292 64.3839 43.3615C64.3732 43.2939 64.3788 43.2246 64.4004 43.1596C64.4219 43.0945 64.4587 43.0356 64.5078 42.9878C64.5568 42.9399 64.6166 42.9045 64.6821 42.8845C65.6008 42.595 67.608 41.9813 67.7701 42.0855C67.9322 42.1897 68.4224 45.0539 68.4224 45.3434C68.4224 45.6329 66.6391 49.9406 66.6391 49.9406C66.6391 49.9406 63.4624 49.2381 64.547 46.3547C64.933 45.3395 66.3496 43.8341 66.3496 43.8341C65.8586 43.8658 65.3661 43.8658 64.8751 43.8341C64.7095 43.7876 64.5641 43.687 64.4621 43.5485Z" fill="#ECBDBB"/>
<path d="M64.7094 48.8479C64.685 48.8478 64.6611 48.8418 64.6395 48.8303C64.618 48.8189 64.5996 48.8024 64.5859 48.7823C64.1188 48.0991 64.0648 47.2653 64.4276 46.3042C64.8375 45.4571 65.3722 44.6764 66.0141 43.9882C65.6282 44.0143 65.2408 44.0079 64.8561 43.9689C64.6545 43.9149 64.4775 43.7937 64.3543 43.6253C64.2986 43.5535 64.2615 43.4692 64.246 43.3797C64.2305 43.2902 64.2372 43.1983 64.2655 43.112C64.2937 43.0212 64.3436 42.9386 64.4109 42.8713C64.4781 42.8041 64.5607 42.7542 64.6515 42.726C65.2421 42.5407 66.0874 42.2821 66.7552 42.1045C66.7921 42.0985 66.8298 42.1064 66.8612 42.1267C66.8926 42.147 66.9153 42.1782 66.9249 42.2143C66.9345 42.2504 66.9304 42.2888 66.9133 42.322C66.8962 42.3552 66.8674 42.3809 66.8324 42.394C66.1685 42.5716 65.327 42.8263 64.7403 43.0116C64.6964 43.0258 64.6566 43.0505 64.6244 43.0834C64.5921 43.1164 64.5683 43.1566 64.555 43.2007C64.5419 43.2411 64.5389 43.284 64.5463 43.3257C64.5537 43.3674 64.5713 43.4067 64.5974 43.4401C64.6805 43.555 64.8003 43.6381 64.9371 43.6755C65.4126 43.7083 65.8898 43.7083 66.3653 43.6755C66.3954 43.6741 66.4253 43.6817 66.4511 43.6974C66.4768 43.7131 66.4972 43.7361 66.5097 43.7636C66.5222 43.791 66.5261 43.8216 66.521 43.8513C66.5159 43.8811 66.502 43.9086 66.4811 43.9303C66.4811 43.9303 65.0799 45.428 64.7132 46.4007C64.389 47.2653 64.4315 48.0064 64.8406 48.6047C64.8588 48.6278 64.8698 48.6557 64.8724 48.685C64.8749 48.7142 64.8688 48.7436 64.8549 48.7694C64.8409 48.7953 64.8197 48.8165 64.7939 48.8304C64.768 48.8444 64.7386 48.8505 64.7094 48.8479Z" fill="#404B7C"/>
<path d="M94.1147 58.9616C93.5627 61.9376 91.7215 65.1993 88.1626 67.6427L83.2758 70.7307C79.6745 68.2101 77.7715 61.2621 77.7715 61.2621C80.3422 57.7109 87.5489 51.7434 87.5489 51.7434C92.1345 49.4312 95.0836 53.7699 94.1147 58.9616Z" fill="#F4EBFA"/>
<path d="M84.0476 69.3877C84.0268 69.3881 84.0061 69.3842 83.9868 69.3763C83.9675 69.3683 83.9501 69.3564 83.9357 69.3413C80.9635 66.1646 79.3037 61.1041 79.2728 61.0539C79.265 61.0348 79.2613 61.0142 79.2618 60.9935C79.2623 60.9728 79.267 60.9525 79.2758 60.9337C79.2845 60.915 79.297 60.8982 79.3125 60.8845C79.328 60.8708 79.3461 60.8604 79.3658 60.854C79.3855 60.8476 79.4063 60.8454 79.4269 60.8474C79.4475 60.8494 79.4674 60.8556 79.4855 60.8657C79.5036 60.8758 79.5194 60.8894 79.5319 60.9059C79.5445 60.9223 79.5535 60.9412 79.5584 60.9613C79.5584 61.0115 81.2298 66.0102 84.1557 69.1368C84.1749 69.1582 84.1875 69.1846 84.1921 69.2129C84.1967 69.2413 84.1932 69.2704 84.1818 69.2967C84.1704 69.3231 84.1518 69.3457 84.128 69.3618C84.1042 69.3779 84.0763 69.3869 84.0476 69.3877Z" fill="#CB9ADA"/>
<path d="M94.1143 58.9615C93.5623 61.9376 91.7211 65.1993 88.1621 67.6427L83.2754 70.7307C83.2754 70.7307 87.973 61.0575 90.5129 56.0163C91.5242 54.0091 93.0837 55.8426 94.1143 58.9615Z" fill="#6E407D"/>
<path d="M102.622 43.4595C96.8891 44.6619 91.6421 47.538 87.5447 51.7237C87.5447 51.7237 85.9505 71.3789 86.7727 86.5062C86.7727 86.5062 104.988 88.4632 118.363 81.1562C118.367 81.1717 111.677 51.2258 102.622 43.4595Z" fill="#F9F8F8"/>
<path d="M93.5661 58.6724C93.5293 58.6727 93.4936 58.6595 93.4659 58.6353C93.4382 58.6111 93.4202 58.5776 93.4155 58.5411C93.0758 55.8391 92.8674 51.6433 92.8674 51.5931C92.866 51.5665 92.8716 51.5399 92.8839 51.5162C92.8961 51.4924 92.9144 51.4724 92.9369 51.458L94.0949 50.686C94.118 50.6714 94.1447 50.6634 94.1721 50.6629L95.6466 50.6281C95.6662 50.6271 95.6858 50.63 95.7042 50.6367C95.7227 50.6433 95.7396 50.6536 95.754 50.6669C95.7684 50.6802 95.7799 50.6963 95.788 50.7142C95.7961 50.732 95.8005 50.7514 95.801 50.771C95.8705 52.4269 96.4109 57.3329 96.4186 57.3793C96.4219 57.4115 96.4146 57.444 96.3979 57.4718C96.3812 57.4997 96.356 57.5214 96.326 57.5337L93.624 58.6299L93.5661 58.6724ZM93.1801 51.6703C93.2109 52.2686 93.4001 55.8198 93.7012 58.3057L96.1214 57.3252C96.0403 56.5995 95.6041 52.589 95.5231 50.9562L94.2377 50.9871L93.1801 51.6703Z" fill="#CB9ADA"/>
<path d="M88.1665 85.2325H88.1125C88.0725 85.2325 88.0342 85.2166 88.006 85.1884C87.9778 85.1602 87.9619 85.1219 87.9619 85.082C87.9619 85.042 87.9778 85.0037 88.006 84.9755C88.0342 84.9473 88.0725 84.9314 88.1125 84.9314H88.1549C89.1083 84.9314 106.208 84.8504 116.48 79.7513C116.497 79.7424 116.517 79.7371 116.536 79.7357C116.556 79.7343 116.576 79.7368 116.595 79.7431C116.614 79.7494 116.631 79.7593 116.646 79.7723C116.661 79.7853 116.673 79.8011 116.682 79.8188C116.691 79.8366 116.696 79.8559 116.698 79.8757C116.699 79.8955 116.697 79.9153 116.69 79.9342C116.684 79.953 116.674 79.9704 116.661 79.9854C116.648 80.0003 116.632 80.0126 116.615 80.0215C111.083 82.7698 103.626 84.0398 98.3453 84.6226C94.9649 84.998 91.5676 85.2016 88.1665 85.2325Z" fill="#CB9ADA"/>
<path d="M86.7073 67.3799C86.6875 67.3794 86.668 67.375 86.65 67.367C86.6319 67.359 86.6156 67.3475 86.6019 67.3331C86.5883 67.3188 86.5777 67.3019 86.5706 67.2834C86.5635 67.265 86.5601 67.2453 86.5606 67.2255C86.7922 60.2505 87.1898 54.5416 87.3326 52.407C87.3341 52.3872 87.3395 52.3679 87.3485 52.3503C87.3574 52.3326 87.3698 52.3168 87.3849 52.3039C87.3999 52.291 87.4174 52.2812 87.4362 52.275C87.4551 52.2689 87.4749 52.2665 87.4947 52.268C87.5145 52.2695 87.5337 52.2749 87.5514 52.2839C87.5691 52.2929 87.5849 52.3052 87.5978 52.3203C87.6107 52.3354 87.6205 52.3528 87.6266 52.3716C87.6328 52.3905 87.6352 52.4104 87.6337 52.4301C87.4754 54.5609 87.0778 60.266 86.8617 67.2371C86.8597 67.2764 86.8424 67.3133 86.8136 67.34C86.7847 67.3666 86.7466 67.381 86.7073 67.3799Z" fill="#CB9ADA"/>
<path d="M92.6399 46.0577C91.5707 46.7563 90.3509 48.6555 91.2503 53.492C91.2503 53.492 92.7441 53.1485 94.0797 51.0216C95.3609 51.6661 96.7901 51.9591 98.2215 51.8708C98.2215 51.8708 96.5501 43.5101 92.6399 46.0577Z" fill="#CB9ADA"/>
<path d="M133.85 82.5269L115.619 79.1996C115.417 79.1643 115.224 79.0893 115.052 78.9788C114.88 78.8684 114.731 78.7247 114.614 78.5563C114.498 78.3878 114.416 78.1978 114.374 77.9975C114.332 77.7971 114.33 77.5904 114.368 77.3892L117.599 59.695C117.634 59.4933 117.709 59.3006 117.82 59.1282C117.93 58.9558 118.074 58.807 118.242 58.6906C118.411 58.5743 118.601 58.4926 118.801 58.4503C119.001 58.408 119.208 58.406 119.409 58.4444L137.636 61.7601C137.838 61.7954 138.031 61.8704 138.203 61.9809C138.375 62.0913 138.524 62.235 138.641 62.4034C138.757 62.5719 138.839 62.7618 138.881 62.9622C138.923 63.1625 138.925 63.3693 138.887 63.5704L135.656 81.2647C135.622 81.467 135.548 81.6606 135.439 81.834C135.329 82.0075 135.186 82.1573 135.018 82.2749C134.85 82.3924 134.66 82.4752 134.459 82.5185C134.258 82.5617 134.051 82.5646 133.85 82.5269Z" fill="#E2B9EF"/>
<path d="M126.968 59.8309L123.178 80.5825L126.295 81.1519L130.085 60.4002L126.968 59.8309Z" fill="#E2B9EF"/>
<path d="M116.885 79.4309L106.463 77.5318C106.277 77.4997 106.1 77.4312 105.941 77.3301C105.782 77.2291 105.645 77.0977 105.537 76.9433C105.43 76.789 105.354 76.6149 105.314 76.431C105.274 76.2471 105.271 76.0571 105.305 75.872L108.582 57.9269C108.614 57.7414 108.682 57.5642 108.783 57.4054C108.884 57.2467 109.016 57.1095 109.17 57.0018C109.324 56.8941 109.499 56.8181 109.682 56.7781C109.866 56.7381 110.056 56.735 110.241 56.7689L120.663 58.668C120.849 58.7001 121.026 58.7686 121.185 58.8696C121.344 58.9706 121.481 59.1021 121.589 59.2564C121.696 59.4108 121.772 59.5849 121.812 59.7688C121.852 59.9527 121.855 60.1427 121.821 60.3278L118.544 78.2729C118.512 78.4583 118.444 78.6356 118.343 78.7943C118.242 78.9531 118.11 79.0903 117.956 79.198C117.802 79.3057 117.627 79.3817 117.443 79.4217C117.26 79.4617 117.07 79.4648 116.885 79.4309Z" fill="#E2B9EF"/>
<path d="M118.155 79.1302C118.125 79.1301 118.097 79.1213 118.072 79.105C118.048 79.0887 118.028 79.0655 118.017 79.0384C118.005 79.0113 118.002 78.9814 118.007 78.9524C118.013 78.9234 118.026 78.8967 118.047 78.8754C118.233 78.6848 118.358 78.4428 118.406 78.1806L121.66 60.3628C121.692 60.1896 121.689 60.0117 121.652 59.8394C121.615 59.6671 121.544 59.5039 121.444 59.3592C121.425 59.3265 121.42 59.2881 121.428 59.2516C121.437 59.215 121.459 59.183 121.49 59.1617C121.521 59.1405 121.558 59.1315 121.596 59.1367C121.633 59.1418 121.667 59.1606 121.691 59.1894C121.814 59.3663 121.901 59.5658 121.947 59.7765C121.992 59.9872 121.996 60.2048 121.957 60.4169L118.703 78.2346C118.645 78.5566 118.492 78.8537 118.263 79.0877C118.249 79.1016 118.232 79.1125 118.213 79.1198C118.195 79.1271 118.175 79.1306 118.155 79.1302Z" fill="#F0DAF6"/>
<path d="M106.877 72.6679L106.448 75.0184C106.399 75.2868 106.577 75.5441 106.845 75.5932L110.734 76.3033C111.002 76.3523 111.26 76.1745 111.309 75.906L111.738 73.5556C111.787 73.2871 111.609 73.0298 111.341 72.9807L107.452 72.2706C107.184 72.2216 106.926 72.3995 106.877 72.6679Z" fill="#CB9ADA"/>
<path d="M107.256 70.5253L107.252 70.5481C107.203 70.8166 107.381 71.0739 107.649 71.1229L111.537 71.8331C111.806 71.8821 112.063 71.7042 112.112 71.4358L112.116 71.413C112.165 71.1446 111.988 70.8872 111.719 70.8382L107.831 70.1281C107.562 70.079 107.305 70.2569 107.256 70.5253Z" fill="#CB9ADA"/>
<path d="M107.605 68.6269L107.6 68.6497C107.551 68.9181 107.729 69.1755 107.998 69.2245L111.886 69.9346C112.155 69.9837 112.412 69.8058 112.461 69.5374L112.465 69.5146C112.514 69.2462 112.336 68.9888 112.068 68.9398L108.179 68.2296C107.911 68.1806 107.654 68.3585 107.605 68.6269Z" fill="#CB9ADA"/>
<path d="M125.311 74.8842L122.122 73.3903L125.62 58.6722L123.365 58.124L120.111 57.352L120.883 48.1421C120.883 48.1421 121.184 48.2193 121.698 48.366C124.481 49.138 133.494 51.8747 134.362 54.542C135.397 57.657 128.657 69.6461 125.311 74.8842Z" fill="#ECBDBB"/>
<path d="M123.369 58.1392L120.115 57.3672L120.887 48.1572C120.887 48.1572 121.188 48.2344 121.702 48.3811C123.472 51.3057 124.068 54.7927 123.369 58.1392Z" fill="#6E407D"/>
<path d="M126.033 58.2203C126.004 58.2204 125.976 58.2123 125.952 58.1969C125.928 58.1816 125.908 58.1596 125.896 58.1337C125.884 58.1077 125.879 58.0789 125.883 58.0505C125.887 58.0221 125.898 57.9953 125.917 57.9733C127.156 56.5921 128.662 55.476 130.344 54.6923C130.362 54.6839 130.382 54.6792 130.402 54.6784C130.421 54.6775 130.441 54.6806 130.46 54.6874C130.478 54.6942 130.496 54.7046 130.51 54.7181C130.525 54.7315 130.537 54.7476 130.545 54.7656C130.553 54.7836 130.558 54.8031 130.559 54.8229C130.56 54.8428 130.557 54.8625 130.55 54.8812C130.543 54.8998 130.533 54.9169 130.519 54.9316C130.506 54.9462 130.49 54.958 130.472 54.9664C128.831 55.7305 127.361 56.819 126.152 58.1663C126.138 58.1838 126.119 58.1977 126.099 58.207C126.078 58.2164 126.055 58.2209 126.033 58.2203Z" fill="#404B7C"/>
<path d="M122.122 73.4019C122.122 73.4019 117.645 75.1003 117.336 75.5442C117.027 75.9881 116.514 78.4237 116.564 78.7673C116.614 79.1108 117.969 79.3849 118.521 77.1538H121.709L122.122 73.4019Z" fill="#ECBDBB"/>
<path d="M122.122 73.4019L118.502 77.1576L117.78 79.5586C117.73 79.6675 117.705 79.7862 117.706 79.906C117.708 80.0259 117.736 80.1439 117.789 80.2514C117.842 80.359 117.918 80.4535 118.012 80.5279C118.106 80.6024 118.215 80.6549 118.332 80.6818C119.104 80.925 119.401 80.0449 119.401 80.0449C119.401 80.0449 119.088 81.0369 119.88 81.2415C120.671 81.4461 120.968 80.5158 120.968 80.5158C120.968 80.5158 120.787 81.4268 121.416 81.5966C122.045 81.7665 122.404 80.9443 122.404 80.9443C122.404 80.9443 122.176 81.751 122.879 81.9054C123.493 82.0405 123.717 81.338 123.717 81.338C123.717 81.338 124.566 79.242 124.875 78.25C125.114 77.478 125.303 74.888 125.303 74.888L122.122 73.4019Z" fill="#ECBDBB"/>
<path d="M102.622 43.4594C102.622 43.4594 110.647 43.1506 122.068 47.7286C122.068 47.7286 123.199 55.0858 120.37 59.9725L110.647 57.093C110.647 57.093 100.151 52.3066 102.622 43.4594Z" fill="#F4EBFA"/>
<path d="M118.915 58.4444H118.861C118.842 58.4372 118.825 58.4263 118.811 58.4125C118.796 58.3986 118.785 58.3821 118.777 58.3637C118.769 58.3454 118.765 58.3257 118.765 58.3058C118.764 58.2858 118.768 58.266 118.776 58.2476C120.59 53.6735 119.872 48.2926 119.864 48.2386C119.86 48.2183 119.86 48.1974 119.864 48.1771C119.868 48.1568 119.876 48.1375 119.887 48.1204C119.899 48.1034 119.914 48.089 119.932 48.0781C119.95 48.0672 119.969 48.0601 119.99 48.0572C120.01 48.0542 120.031 48.0556 120.051 48.0611C120.071 48.0666 120.09 48.0762 120.106 48.0892C120.122 48.1023 120.135 48.1185 120.145 48.1369C120.154 48.1553 120.16 48.1754 120.161 48.1961C120.161 48.2502 120.899 53.7082 119.054 58.3556C119.042 58.3823 119.022 58.405 118.997 58.4207C118.973 58.4365 118.944 58.4447 118.915 58.4444Z" fill="#CB9ADA"/>
<path d="M119.826 59.961H119.784L110.605 57.259H110.585C108.827 56.391 107.209 55.2627 105.787 53.9124C102.781 51.0174 101.576 47.6437 102.313 44.1543C102.316 44.1335 102.323 44.1134 102.333 44.0953C102.344 44.0773 102.358 44.0616 102.375 44.0494C102.392 44.0371 102.411 44.0286 102.432 44.0243C102.452 44.0199 102.474 44.0199 102.494 44.0242C102.515 44.0285 102.534 44.0371 102.551 44.0493C102.568 44.0615 102.582 44.0772 102.593 44.0952C102.603 44.1133 102.61 44.1333 102.613 44.1541C102.615 44.1749 102.613 44.196 102.607 44.216C101.893 47.6476 103.035 50.8359 106.007 53.6962C107.401 55.0203 108.986 56.1276 110.709 56.9811L119.876 59.6831C119.903 59.6987 119.924 59.722 119.937 59.75C119.95 59.778 119.954 59.8092 119.948 59.8395C119.943 59.8698 119.928 59.8976 119.906 59.9194C119.885 59.9411 119.857 59.9556 119.826 59.961Z" fill="#CB9ADA"/>
<path d="M95.4699 47.092C95.4699 47.092 95.1804 49.2459 94.0803 50.7552C94.0803 50.7552 92.4591 49.493 92.0461 48.7403L91.8531 47.9297L91.166 45.0617L93.5669 40.144L93.841 41.1361L95.4699 47.092Z" fill="#ECBDBB"/>
<path d="M91.8677 47.9219L91.1807 45.054L93.5662 40.144L93.8402 41.1361C93.9985 43.205 93.9637 46.8836 91.8677 47.9219Z" fill="#404B7C"/>
<path d="M83.534 37.4419C83.534 37.4419 84.306 43.0505 87.4943 45.4669C90.6827 47.8832 92.4853 46.1347 93.3615 43.1007C94.2377 40.0667 93.4117 32.9103 89.0885 32.8099C84.7653 32.7096 83.0708 34.6087 83.534 37.4419Z" fill="#ECBDBB"/>
<path d="M96.9788 36.095C96.9587 36.5694 96.8953 37.041 96.7896 37.5039C95.8285 41.8928 94.2536 42.7535 94.2536 42.7535L93.3427 39.2564L92.9567 39.1522L92.7791 38.7662L92.2039 37.5117C92.2039 37.5117 89.942 38.1293 89.1159 34.8097C89.1159 34.8097 88.3439 37.0407 87.1859 37.419C86.8468 37.5216 86.4862 37.5314 86.142 37.4472C85.7978 37.363 85.4825 37.188 85.2289 36.9404C85.2289 36.9404 85.1247 40.0786 82.5038 38.9476C79.8828 37.8166 78.9024 34.0608 79.5702 33.3892C80.2379 32.7175 81.4731 33.6478 81.4731 33.6478C81.4731 33.6478 79.5161 28.5526 81.5233 27.0626C83.5305 25.5727 86.495 27.7497 87.7649 29.0505C87.7649 29.0505 87.5604 26.171 88.9654 26.1015C90.3704 26.032 90.2701 29.9615 92.6015 31.0423C94.6628 31.9648 97.0984 32.8758 96.9788 36.095Z" fill="#2F092A"/>
<path d="M96.979 36.0947C96.9589 36.5691 96.8956 37.0407 96.7898 37.5036C95.8287 41.8924 94.2538 42.7532 94.2538 42.7532L93.3429 39.2561L92.9569 39.1518L92.7793 38.7658C94.1573 38.4609 95.9136 37.7507 96.979 36.0947Z" fill="#2F092A"/>
<path d="M92.7788 39.2718C92.7788 39.2718 92.4352 36.373 94.0834 36.2186C95.7317 36.0642 96.0906 40.1982 93.1069 40.592L92.7788 39.2718Z" fill="#ECBDBB"/>
<path d="M93.4623 40.059C93.4279 40.0588 93.3945 40.0469 93.3678 40.0251C93.3411 40.0033 93.3227 39.973 93.3157 39.9393C93.2964 39.839 92.8447 37.5114 94.2807 36.9247C94.2989 36.9171 94.3185 36.9131 94.3383 36.9131C94.358 36.913 94.3776 36.9169 94.3959 36.9244C94.4142 36.932 94.4308 36.943 94.4448 36.957C94.4588 36.9709 94.4699 36.9875 94.4775 37.0057C94.4851 37.024 94.4891 37.0435 94.4891 37.0633C94.4891 37.0831 94.4853 37.1027 94.4778 37.1209C94.4702 37.1392 94.4592 37.1558 94.4452 37.1699C94.4313 37.1839 94.4147 37.195 94.3965 37.2026C93.1883 37.6967 93.6245 39.8583 93.6245 39.8814C93.6284 39.9009 93.6284 39.9211 93.6245 39.9406C93.6206 39.9601 93.6128 39.9787 93.6017 39.9952C93.5906 40.0117 93.5763 40.0258 93.5596 40.0368C93.543 40.0477 93.5244 40.0553 93.5048 40.059H93.4739H93.4623Z" fill="#404B7C"/>
<path d="M94.4928 38.9438C94.463 38.9438 94.434 38.935 94.4093 38.9185C94.3845 38.902 94.3652 38.8786 94.3538 38.8511C94.2714 38.6894 94.1476 38.5524 93.9951 38.4541C93.8425 38.3558 93.6666 38.2996 93.4853 38.2914C93.4454 38.2878 93.4085 38.2686 93.3828 38.2378C93.3571 38.207 93.3447 38.1673 93.3483 38.1274C93.3518 38.0875 93.3711 38.0506 93.4019 38.0249C93.4327 37.9992 93.4724 37.9868 93.5123 37.9904C93.7483 38.0036 93.9765 38.0797 94.1733 38.2107C94.3701 38.3416 94.5283 38.5228 94.6317 38.7353C94.6413 38.7582 94.645 38.7831 94.6426 38.8078C94.6402 38.8324 94.6318 38.8561 94.618 38.8767C94.6043 38.8974 94.5856 38.9143 94.5638 38.926C94.5419 38.9377 94.5175 38.9438 94.4928 38.9438Z" fill="#404B7C"/>
<path d="M87.9228 43.1664C87.793 43.1796 87.6618 43.1667 87.5372 43.1282C87.4125 43.0897 87.2968 43.0266 87.1971 42.9425C87.1389 42.8693 87.103 42.7809 87.0934 42.6879C87.0838 42.5949 87.101 42.5011 87.143 42.4175C87.3114 41.8522 87.3353 41.2537 87.2125 40.6767C87.2033 40.6378 87.2099 40.5968 87.2309 40.5628C87.2519 40.5288 87.2856 40.5045 87.3245 40.4953C87.3634 40.4861 87.4043 40.4927 87.4384 40.5137C87.4724 40.5347 87.4967 40.5683 87.5059 40.6072C87.6467 41.2467 87.6188 41.9118 87.4248 42.5372C87.4029 42.5697 87.3912 42.608 87.3912 42.6472C87.3912 42.6864 87.4029 42.7247 87.4248 42.7572C87.5715 42.9271 88.1968 42.8846 88.5828 42.7997C88.6208 42.7934 88.6597 42.8019 88.6916 42.8234C88.7235 42.8449 88.7459 42.8778 88.7543 42.9153C88.7627 42.9529 88.7564 42.9922 88.7368 43.0253C88.7171 43.0583 88.6855 43.0826 88.6485 43.093C88.4096 43.1414 88.1665 43.166 87.9228 43.1664Z" fill="#404B7C"/>
<path d="M88.0084 39.0517C88.0084 39.0517 87.6842 38.2449 87.8039 38.0056C87.9235 37.7663 88.1281 38.1253 88.1281 38.1253C88.1281 38.1253 89.5177 37.0638 90.4441 38.5113C90.4788 38.519 89.3826 38.0056 88.0084 39.0517Z" fill="#404B7C"/>
<path d="M88.6948 40.5572C88.675 40.5562 88.6556 40.5513 88.6377 40.5428C88.6198 40.5344 88.6038 40.5224 88.5905 40.5077C88.5773 40.493 88.567 40.4758 88.5604 40.4572C88.5538 40.4385 88.5509 40.4187 88.552 40.399C88.5634 40.1889 88.6208 39.9839 88.7202 39.7984C88.8196 39.613 88.9585 39.4517 89.1271 39.3259C89.49 39.102 89.9802 39.1252 90.5823 39.3915C90.6015 39.3988 90.6189 39.41 90.6335 39.4243C90.6481 39.4387 90.6597 39.4558 90.6675 39.4748C90.6753 39.4937 90.6791 39.514 90.6788 39.5345C90.6784 39.555 90.6739 39.5752 90.6655 39.5938C90.6571 39.6125 90.645 39.6293 90.6298 39.6431C90.6147 39.6569 90.5969 39.6675 90.5776 39.6742C90.5583 39.6809 90.5377 39.6836 90.5173 39.6821C90.4969 39.6806 90.477 39.675 90.4588 39.6656C89.9532 39.4417 89.5594 39.4108 89.3008 39.5806C89.175 39.6813 89.0715 39.8071 88.9971 39.95C88.9226 40.0929 88.8788 40.2497 88.8685 40.4105C88.8682 40.4321 88.8633 40.4533 88.8541 40.4728C88.8448 40.4923 88.8316 40.5096 88.8151 40.5235C88.7986 40.5374 88.7794 40.5476 88.7586 40.5534C88.7378 40.5592 88.7161 40.5605 88.6948 40.5572Z" fill="#404B7C"/>
<path d="M86.3332 39.7772C86.2034 39.4395 86.0153 39.1272 85.7774 38.8547C85.5612 38.735 85.6809 39.1287 85.6809 39.1287C85.6809 39.1287 84.2759 39.0708 84.7043 40.7191C84.7043 40.7191 84.9552 39.7155 86.3332 39.7772Z" fill="#404B7C"/>
<path d="M85.3292 41.6878H85.306C85.2677 41.677 85.2352 41.6514 85.2156 41.6167C85.1961 41.582 85.1911 41.5409 85.2018 41.5025C85.3408 40.993 85.5878 40.6996 85.8812 40.6224C86.4138 40.4989 86.9465 41.0895 86.9697 41.1165C86.9939 41.1465 87.0057 41.1847 87.0027 41.2232C86.9996 41.2616 86.9818 41.2975 86.9531 41.3232C86.9244 41.349 86.8868 41.3627 86.8483 41.3616C86.8097 41.3605 86.773 41.3446 86.7458 41.3172C86.6261 41.1821 86.2479 40.8463 85.9506 40.9312C85.8263 40.9967 85.7195 41.0913 85.6396 41.2069C85.5596 41.3225 85.5087 41.4557 85.4913 41.5952C85.4787 41.6266 85.4558 41.6528 85.4263 41.6696C85.3969 41.6865 85.3627 41.6929 85.3292 41.6878Z" fill="#404B7C"/>
<path d="M90.5208 44.7261C90.2919 44.8717 90.0286 44.9544 89.7576 44.966C89.4865 44.9775 89.2172 44.9174 88.9768 44.7917C88.7721 44.6954 88.5855 44.5649 88.4248 44.4057C89.0543 43.6013 89.8651 42.9571 90.791 42.5259C90.876 42.6809 90.9458 42.8438 90.9994 43.0122C91.1731 43.5063 91.2619 44.286 90.5208 44.7261Z" fill="#404B7C"/>
<path d="M91.0111 43.0007C90.1668 43.3724 89.4596 43.9985 88.9885 44.7917C88.7839 44.6954 88.5972 44.5649 88.4365 44.4057C89.066 43.6013 89.8768 42.9571 90.8027 42.5259C90.8871 42.6772 90.9569 42.8362 91.0111 43.0007Z" fill="white"/>
<path d="M112.326 39.0668L111.631 40.387L103.988 36.3533L104.683 35.0331C104.683 35.0331 107.385 35.6893 109.57 32.7442C110.053 32.0769 110.451 31.3521 110.755 30.5864L111.461 31.4549L112.577 31.5476C112.319 31.9364 112.085 32.3413 111.878 32.7596C109.863 36.8435 112.326 39.0668 112.326 39.0668Z" fill="#CB9ADA"/>
<path d="M111.875 32.7598H109.559C110.042 32.0925 110.44 31.3677 110.744 30.6021L111.45 31.4706L112.566 31.5632C112.311 31.9473 112.08 32.3469 111.875 32.7598Z" fill="#6E407D"/>
<path d="M111.851 39.314C111.828 39.3195 111.804 39.3195 111.782 39.314L104.807 35.6316C104.774 35.6117 104.75 35.5802 104.74 35.5434C104.73 35.5066 104.734 35.4673 104.751 35.4334C104.769 35.3996 104.799 35.3737 104.835 35.361C104.871 35.3484 104.911 35.3499 104.946 35.3653L111.94 39.0284C111.974 39.0433 112.001 39.0702 112.016 39.1038C112.031 39.1374 112.034 39.1755 112.023 39.2108C112.012 39.2461 111.988 39.2761 111.957 39.2952C111.925 39.3142 111.887 39.3209 111.851 39.314Z" fill="#F0DAF6"/>
<path d="M109.2 27.2903C106.764 26.0049 105.258 24.3799 104.73 22.4576C104.07 20.0683 105.147 17.9221 105.641 17.1115C105.79 16.8369 106.039 16.6304 106.337 16.5348C106.634 16.4392 106.957 16.4619 107.239 16.5981L112.118 19.1727L111.396 20.5392L106.83 18.1421C106.413 18.9141 105.764 20.4272 106.216 22.06C106.629 23.5538 107.876 24.8585 109.918 25.92L109.2 27.2903Z" fill="#CB9ADA"/>
<path d="M122.686 31.9379C121.303 32.3763 119.817 32.3669 118.44 31.9109C117.659 31.6738 116.904 31.3595 116.186 30.9729L116.907 29.6064C117.824 30.1144 118.82 30.4654 119.853 30.6448C120.637 30.7795 121.443 30.7212 122.199 30.4749C123.801 29.9268 124.701 28.5449 125.087 27.7729L120.509 25.3489L121.231 23.9824L126.106 26.557C126.381 26.7118 126.585 26.9674 126.675 27.27C126.765 27.5725 126.734 27.8982 126.588 28.1782C126.195 29.0352 125.033 31.135 122.686 31.9379Z" fill="#CB9ADA"/>
<path d="M116.896 29.606C117.813 30.1139 118.808 30.4649 119.841 30.6443C119.405 31.1014 118.933 31.5223 118.428 31.9027C117.652 31.6673 116.901 31.3557 116.186 30.9724L116.896 29.606Z" fill="#6E407D"/>
<path d="M122.508 26.4026L120.509 25.3489L121.231 23.9824L122.983 24.9088C122.858 25.4166 122.699 25.9156 122.508 26.4026Z" fill="#6E407D"/>
<path d="M111.461 31.4513C111.461 31.4513 103.355 28.3285 112.198 16.8296L123.134 22.5964C118.625 36.3959 111.461 31.4513 111.461 31.4513Z" fill="#CB9ADA"/>
<path d="M110.249 19.8056C110.223 19.8053 110.197 19.798 110.174 19.7845C110.151 19.771 110.133 19.7517 110.12 19.7286C110.107 19.7055 110.1 19.6794 110.101 19.6529C110.101 19.6265 110.108 19.6006 110.122 19.5779C110.319 19.2536 110.527 18.9217 110.751 18.5897C110.762 18.5724 110.775 18.5573 110.792 18.5455C110.808 18.5336 110.827 18.5252 110.847 18.5208C110.867 18.5163 110.887 18.5159 110.907 18.5196C110.927 18.5232 110.946 18.5309 110.963 18.5421C110.98 18.5533 110.994 18.5678 111.006 18.5847C111.017 18.6016 111.024 18.6206 111.028 18.6406C111.032 18.6605 111.031 18.681 111.027 18.7008C111.022 18.7206 111.014 18.7393 111.002 18.7557C110.782 19.0838 110.574 19.4119 110.381 19.7323C110.367 19.7549 110.348 19.7736 110.325 19.7865C110.302 19.7994 110.276 19.806 110.249 19.8056Z" fill="#F0DAF6"/>
<path d="M108.06 26.3791C108.021 26.3791 107.983 26.3638 107.955 26.3364C107.927 26.309 107.911 26.2717 107.91 26.2324C107.904 25.814 107.931 25.3959 107.991 24.9818C107.992 24.9611 107.998 24.9409 108.008 24.9225C108.017 24.9041 108.03 24.8879 108.046 24.8749C108.062 24.8618 108.081 24.8523 108.101 24.8467C108.121 24.8412 108.142 24.8399 108.162 24.8428C108.183 24.8458 108.203 24.8529 108.22 24.8638C108.238 24.8747 108.253 24.8891 108.265 24.9061C108.277 24.9231 108.285 24.9424 108.289 24.9627C108.293 24.9831 108.293 25.004 108.288 25.0242C108.231 25.4218 108.205 25.8231 108.211 26.2247C108.211 26.2444 108.208 26.2641 108.201 26.2826C108.194 26.301 108.183 26.3179 108.17 26.3323C108.156 26.3466 108.14 26.3581 108.122 26.3662C108.104 26.3742 108.084 26.3786 108.064 26.3791H108.06Z" fill="#F0DAF6"/>
<path d="M115.159 29.5794C115.134 29.5792 115.111 29.5732 115.089 29.5618C115.067 29.5503 115.049 29.5339 115.035 29.5137L113.592 27.4062H111.04C111.012 27.4064 110.984 27.3986 110.96 27.3837C110.936 27.3688 110.917 27.3475 110.904 27.3221C110.892 27.2967 110.887 27.2683 110.889 27.2402C110.892 27.2121 110.903 27.1853 110.921 27.163L112.465 25.1404L111.693 22.7124C111.684 22.6857 111.683 22.657 111.689 22.6297C111.696 22.6024 111.71 22.5774 111.73 22.5577C111.75 22.538 111.775 22.5244 111.803 22.5183C111.83 22.5122 111.859 22.5139 111.886 22.5233L114.29 23.3763L116.355 21.8787C116.378 21.8619 116.405 21.852 116.434 21.85C116.462 21.848 116.49 21.854 116.515 21.8673C116.54 21.8806 116.561 21.9006 116.575 21.9252C116.589 21.9497 116.596 21.9778 116.595 22.006L116.525 24.5575L118.587 26.059C118.609 26.0756 118.627 26.0982 118.638 26.1243C118.648 26.1504 118.651 26.1789 118.646 26.2067C118.642 26.2344 118.629 26.2602 118.61 26.2812C118.592 26.3022 118.567 26.3175 118.54 26.3254L116.093 27.0472L115.302 29.4713C115.293 29.4986 115.277 29.5229 115.255 29.5414C115.233 29.5598 115.207 29.5717 115.178 29.5755H115.155L115.159 29.5794ZM111.349 27.1051H113.665C113.689 27.1052 113.713 27.1113 113.735 27.1227C113.756 27.1341 113.775 27.1506 113.789 27.1707L115.105 29.1007L115.827 26.8928C115.834 26.8698 115.848 26.8491 115.865 26.8323C115.882 26.8155 115.904 26.8031 115.927 26.7963L118.158 26.1401L116.278 24.7698C116.258 24.7553 116.242 24.736 116.231 24.7138C116.221 24.6916 116.216 24.6671 116.216 24.6424L116.278 22.3264L114.395 23.689C114.375 23.7033 114.352 23.7125 114.327 23.7158C114.303 23.7192 114.279 23.7166 114.256 23.7083L112.067 22.9363L112.781 25.1481C112.789 25.1714 112.791 25.1962 112.787 25.2204C112.783 25.2447 112.773 25.2675 112.758 25.287L111.349 27.1051Z" fill="#F0DAF6"/>
<path d="M120.605 22.7278C120.582 22.7332 120.559 22.7332 120.536 22.7278L112.202 18.3274C112.169 18.3075 112.146 18.276 112.135 18.2392C112.125 18.2024 112.129 18.1631 112.147 18.1292C112.165 18.0954 112.194 18.0695 112.231 18.0568C112.267 18.0442 112.306 18.0457 112.341 18.0611L120.675 22.4615C120.698 22.4796 120.715 22.504 120.724 22.5317C120.733 22.5593 120.734 22.589 120.727 22.6172C120.719 22.6454 120.704 22.6709 120.682 22.6905C120.661 22.7102 120.634 22.7231 120.605 22.7278Z" fill="#F0DAF6"/>
<path d="M72.2357 28.3939L61.6593 25.7344L58.1621 28.4518L64.1374 38.2331L74.0267 32.4431L72.2357 28.3939Z" fill="#CB9ADA"/>
<path d="M66.137 30.6096H66.0984L58.8841 28.7954C58.8648 28.7906 58.8467 28.7821 58.8307 28.7702C58.8148 28.7584 58.8013 28.7436 58.7911 28.7265C58.7809 28.7095 58.7741 28.6906 58.7712 28.671C58.7683 28.6514 58.7692 28.6313 58.774 28.6121C58.7789 28.5928 58.7874 28.5747 58.7992 28.5587C58.8111 28.5428 58.8259 28.5293 58.8429 28.5191C58.86 28.5089 58.8788 28.5021 58.8985 28.4992C58.9181 28.4963 58.9381 28.4973 58.9574 28.5021L66.1717 30.3163C66.2049 30.327 66.2334 30.3489 66.2522 30.3783C66.271 30.4076 66.2791 30.4426 66.275 30.4772C66.2709 30.5119 66.2549 30.544 66.2297 30.5682C66.2045 30.5923 66.1718 30.607 66.137 30.6096Z" fill="#F0DAF6"/>
<path d="M64.0762 37.6235C64.0382 37.6236 64.0015 37.6093 63.9736 37.5835C63.9457 37.5578 63.9285 37.5224 63.9256 37.4845L63.3042 29.7954C63.3026 29.7756 63.305 29.7557 63.3112 29.7369C63.3173 29.718 63.3272 29.7006 63.3401 29.6855C63.353 29.6705 63.3687 29.6581 63.3864 29.6491C63.4041 29.6402 63.4233 29.6348 63.4431 29.6333C63.4629 29.6317 63.4828 29.6341 63.5016 29.6403C63.5205 29.6464 63.5379 29.6563 63.553 29.6692C63.568 29.6821 63.5804 29.6978 63.5893 29.7155C63.5983 29.7332 63.6037 29.7524 63.6052 29.7722L64.2267 37.442C64.2283 37.4618 64.2259 37.4817 64.2198 37.5006C64.2137 37.5195 64.2039 37.5369 64.1909 37.552C64.178 37.5671 64.1623 37.5794 64.1446 37.5884C64.1268 37.5973 64.1075 37.6027 64.0877 37.6042L64.0762 37.6235Z" fill="#F0DAF6"/>
<path d="M64.6276 36.4303H64.589C64.5507 36.4203 64.518 36.3957 64.4978 36.3617C64.4776 36.3278 64.4715 36.2873 64.4809 36.2489L66.5884 27.8611C66.5932 27.8418 66.6018 27.8237 66.6136 27.8078C66.6255 27.7918 66.6403 27.7783 66.6573 27.7681C66.6743 27.7579 66.6932 27.7512 66.7129 27.7482C66.7325 27.7453 66.7525 27.7463 66.7718 27.7511C66.791 27.7559 66.8092 27.7645 66.8251 27.7763C66.8411 27.7881 66.8545 27.803 66.8648 27.82C66.875 27.837 66.8817 27.8559 66.8847 27.8755C66.8876 27.8952 66.8866 27.9152 66.8818 27.9344L64.7742 36.3222C64.765 36.3538 64.7456 36.3814 64.7191 36.401C64.6926 36.4205 64.6605 36.4308 64.6276 36.4303Z" fill="#F0DAF6"/>
<path d="M73.151 32.3702H73.1124L66.0061 30.583C65.9869 30.5782 65.9687 30.5697 65.9528 30.5578C65.9368 30.546 65.9234 30.5312 65.9131 30.5141C65.9029 30.4971 65.8962 30.4782 65.8932 30.4586C65.8903 30.439 65.8913 30.4189 65.8961 30.3997C65.9009 30.3804 65.9095 30.3623 65.9213 30.3463C65.9331 30.3304 65.948 30.3169 65.965 30.3067C65.982 30.2965 66.0009 30.2897 66.0205 30.2868C66.0402 30.2839 66.0602 30.2849 66.0795 30.2897L73.1741 32.073C73.2096 32.0808 73.241 32.1012 73.2625 32.1304C73.2841 32.1595 73.2945 32.1955 73.2917 32.2317C73.2888 32.2678 73.2731 32.3018 73.2472 32.3272C73.2214 32.3527 73.1872 32.3679 73.151 32.3702Z" fill="#F0DAF6"/>
<path d="M63.451 29.9307H63.4124C63.3904 29.925 63.3699 29.9144 63.3525 29.8997C63.3351 29.885 63.3213 29.8666 63.3121 29.8457L61.7024 26.2173C61.6886 26.1814 61.6891 26.1416 61.7037 26.106C61.7183 26.0704 61.746 26.0418 61.7811 26.026C61.8161 26.0102 61.8559 26.0084 61.8923 26.021C61.9286 26.0336 61.9588 26.0597 61.9765 26.0938L63.5205 29.5485L66.4271 27.2865C66.4428 27.2744 66.4607 27.2654 66.4799 27.2602C66.4991 27.255 66.5191 27.2536 66.5388 27.2561C66.5585 27.2586 66.5776 27.265 66.5948 27.2748C66.6121 27.2847 66.6272 27.2979 66.6394 27.3136C66.6515 27.3293 66.6605 27.3472 66.6657 27.3664C66.6709 27.3856 66.6723 27.4056 66.6698 27.4253C66.6673 27.445 66.661 27.4641 66.6511 27.4813C66.6412 27.4986 66.6281 27.5137 66.6124 27.5259L63.5514 29.9036C63.5222 29.9243 63.4866 29.9338 63.451 29.9307Z" fill="#F0DAF6"/>
<path d="M68.7386 31.2659H68.7077C68.6856 31.2603 68.6651 31.2497 68.6478 31.235C68.6304 31.2203 68.6166 31.2018 68.6073 31.181L67.0209 27.6028C67.0114 27.5846 67.0058 27.5647 67.0043 27.5443C67.0028 27.5239 67.0055 27.5033 67.0122 27.484C67.0189 27.4647 67.0295 27.4469 67.0433 27.4318C67.0572 27.4167 67.0739 27.4045 67.0926 27.3961C67.1113 27.3877 67.1315 27.3832 67.1519 27.3828C67.1724 27.3825 67.1927 27.3863 67.2117 27.3941C67.2306 27.4019 67.2478 27.4135 67.2621 27.4281C67.2764 27.4427 67.2876 27.4602 67.2949 27.4793L68.8003 30.8799L71.7571 28.5639C71.7728 28.5518 71.7908 28.5428 71.8099 28.5376C71.8291 28.5324 71.8491 28.531 71.8688 28.5335C71.8886 28.536 71.9076 28.5423 71.9248 28.5522C71.9421 28.5621 71.9572 28.5752 71.9694 28.5909C71.9816 28.6067 71.9905 28.6246 71.9957 28.6438C72.001 28.663 72.0024 28.683 71.9999 28.7027C71.9974 28.7224 71.991 28.7414 71.9811 28.7587C71.9713 28.7759 71.9581 28.7911 71.9424 28.8032L68.8351 31.2196C68.8097 31.2463 68.7753 31.2628 68.7386 31.2659Z" fill="#F0DAF6"/>
<path d="M64.6276 37.6233C64.6006 37.6233 64.574 37.6162 64.5507 37.6024C64.5274 37.5887 64.5082 37.569 64.4952 37.5453C64.4822 37.5216 64.4758 37.4948 64.4766 37.4678C64.4775 37.4407 64.4857 37.4144 64.5003 37.3917L68.6111 31.0304C68.6326 30.9966 68.6667 30.9727 68.7058 30.964C68.7449 30.9554 68.7858 30.9626 68.8196 30.9841C68.8534 31.0056 68.8772 31.0396 68.8859 31.0787C68.8946 31.1178 68.8874 31.1587 68.8659 31.1925L64.755 37.5538C64.7413 37.5751 64.7225 37.5927 64.7002 37.6049C64.678 37.617 64.653 37.6233 64.6276 37.6233Z" fill="#F0DAF6"/>
<path d="M130.26 35.4463C130.26 35.4463 129.488 38.8624 126.909 38.3529C126.909 38.3529 129.65 39.1249 128.994 42.4638C128.994 42.4638 129.723 39.1365 132.267 39.4144C132.263 39.4144 129.851 38.5266 130.26 35.4463Z" fill="#CB9ADA"/>
<path d="M125.237 31.5788C124.134 31.3819 123.771 33.9179 124.801 34.1958C125.832 34.4737 126.345 31.7795 125.237 31.5788Z" fill="#F8EEFB"/>
<path d="M132.665 42.4133C131.989 42.2937 131.769 43.8415 132.398 44.0114C133.027 44.1812 133.344 42.5368 132.665 42.4133Z" fill="#F8EEFB"/>
<path d="M56.0316 35.6626C56.0316 35.6626 56.572 38.4148 54.5146 38.878C54.5146 38.878 56.7766 38.5692 57.3711 41.2171C57.3711 41.2171 56.8307 38.5422 58.7877 37.9246C58.7838 37.9284 56.7419 38.0558 56.0316 35.6626Z" fill="#CB9ADA"/>
<path d="M58.8921 76.6172C58.8921 76.6172 59.9575 79.103 58.1201 79.9599C58.1201 79.9599 60.1929 79.2111 61.2892 81.5889C61.2892 81.5889 60.2392 79.1725 61.9569 78.1959C61.9454 78.1959 60.0308 78.744 58.8921 76.6172Z" fill="#CB9ADA"/>
<path d="M76.1113 21.7974C76.1113 21.7974 75.1579 24.2948 73.2588 23.627C73.2588 23.627 75.2428 24.5225 74.3821 26.962C74.3821 26.962 75.2969 24.5264 77.1883 25.032C77.1999 25.0166 75.4628 24.0786 76.1113 21.7974Z" fill="#F8EEFB"/>
<path d="M64.4928 81.3494C63.6552 81.3186 63.3078 83.511 64.2882 83.6114C65.2686 83.7118 65.8322 81.4035 64.4928 81.3494Z" fill="#F8EEFB"/>
</svg>
